<svg width="1054" height="555" viewBox="0 0 1054 555" fill="none" xmlns="http://www.w3.org/2000/svg">
<path d="M489.121 165.698C498.541 150.859 512 139.018 527.916 131.565C543.833 124.112 561.547 121.356 578.975 123.623C596.404 125.889 612.824 133.083 626.305 144.359C639.786 155.635 649.769 170.525 655.08 187.279" stroke="#0BB7CE" stroke-width="8.6557"/>
<path d="M27.4434 494.694V539.154H18.5299V494.694H2.63604V486.64H43.3372V494.694H27.4434ZM73.6991 539.154V486.64H82.6125V509.407H108.601V486.64H117.515V539.154H108.601V517.676H82.6125V539.154H73.6991ZM189.684 486.64V494.909H161.655V508.87H186.784V516.709H161.655V530.777H190.543V539.154H152.742V486.64H189.684ZM263.045 494.694V539.154H254.131V494.694H238.238V486.64H278.939V494.694H263.045ZM339.907 520.038L353.653 539.154H342.377L329.812 521.434H318.214V539.154H309.301V486.64H328.846C336.793 486.64 342.484 488 345.921 490.72C349.429 493.369 351.183 497.701 351.183 503.715C351.183 512.378 347.424 517.819 339.907 520.038ZM329.168 513.487C334.108 513.487 337.509 512.736 339.37 511.232C341.232 509.729 342.162 507.187 342.162 503.607C342.162 500.171 341.232 497.844 339.37 496.627C337.509 495.338 334.18 494.694 329.383 494.694H318.214V513.487H329.168ZM392.091 527.233L386.829 539.154H377.378L400.575 486.64H410.025L433.114 539.154H423.664L418.402 527.233H392.091ZM414.858 518.964L405.3 497.379L395.742 518.964H414.858ZM485.027 539.154H475.147L453.991 486.64H463.978L480.087 525.837L496.303 486.64H506.183L485.027 539.154ZM571.265 486.64V494.909H543.236V508.87H568.365V516.709H543.236V530.777H572.124V539.154H534.322V486.64H571.265ZM604.108 539.154V486.64H613.021V530.777H636.969V539.154H604.108ZM695.019 499.849C695.019 502.068 695.843 503.679 697.489 504.681C699.136 505.898 702.644 507.151 708.013 508.44C713.669 509.8 717.786 511.662 720.363 514.024C723.012 516.387 724.337 519.788 724.337 524.226C724.337 528.88 722.583 532.639 719.075 535.503C715.638 538.366 711.128 539.798 705.543 539.798C697.453 539.798 690.151 536.934 683.636 531.207L689.22 524.549C694.661 529.202 700.174 531.529 705.758 531.529C708.55 531.529 710.806 530.921 712.524 529.703C714.242 528.415 715.101 526.768 715.101 524.763C715.101 522.759 714.314 521.184 712.739 520.038C711.235 518.893 708.515 517.855 704.577 516.924C697.776 515.349 693.05 513.487 690.401 511.34C687.323 508.977 685.784 505.361 685.784 500.493C685.784 495.768 687.502 492.081 690.938 489.432C694.375 486.711 698.778 485.351 704.147 485.351C711.378 485.351 717.571 487.463 722.726 491.687L718.001 498.345C716.426 496.913 714.314 495.768 711.665 494.909C709.016 493.978 706.403 493.513 703.825 493.513C701.176 493.513 699.028 494.085 697.382 495.231C695.807 496.305 695.019 497.844 695.019 499.849ZM775.855 494.694V539.154H766.941V494.694H751.047V486.64H791.748V494.694H775.855ZM846.381 493.405C841.154 493.405 836.751 495.267 833.172 498.99C829.592 502.712 827.802 507.223 827.802 512.521C827.802 517.819 829.592 522.329 833.172 526.052C836.751 529.703 841.154 531.529 846.381 531.529C851.607 531.529 856.01 529.703 859.59 526.052C863.169 522.329 864.959 517.819 864.959 512.521C864.959 507.223 863.169 502.712 859.59 498.99C856.01 495.267 851.607 493.405 846.381 493.405ZM846.381 539.691C838.505 539.691 831.919 537.113 826.621 531.959C821.323 526.732 818.674 520.253 818.674 512.521C818.674 504.789 821.323 498.345 826.621 493.19C831.919 487.964 838.505 485.351 846.381 485.351C854.256 485.351 860.843 487.964 866.141 493.19C871.439 498.345 874.088 504.789 874.088 512.521C874.088 520.253 871.403 526.696 866.033 531.851C860.664 537.078 854.113 539.691 846.381 539.691ZM936.54 520.038L950.286 539.154H939.01L926.446 521.434H914.847V539.154H905.934V486.64H925.479C933.426 486.64 939.118 488 942.554 490.72C946.062 493.369 947.816 497.701 947.816 503.715C947.816 512.378 944.058 517.819 936.54 520.038ZM925.801 513.487C930.741 513.487 934.142 512.736 936.003 511.232C937.865 509.729 938.796 507.187 938.796 503.607C938.796 500.171 937.865 497.844 936.003 496.627C934.142 495.338 930.813 494.694 926.016 494.694H914.847V513.487H925.801ZM1001.93 539.154H992.913V518.427L973.367 486.64H983.14L997.423 510.48L1011.81 486.64H1021.48L1001.93 518.427V539.154Z" fill="#0BB7CE"/>
<path d="M219.398 435.9H28.9727L330.408 6L584.38 269.999L730.252 100.986L993.498 435.9H854.15" stroke="#0BB7CE" stroke-width="10.8555" stroke-linecap="round" stroke-linejoin="round"/>
<line x1="448.775" y1="437.342" x2="656.512" y2="437.342" stroke="#0BB7CE" stroke-width="8.6557" stroke-linecap="round"/>
<path d="M316.053 293.079C207.568 241.145 262.676 187.768 333.364 47.8345C285.757 114.195 108.893 356.266 65.0371 418.587C258.925 367.807 420.883 383.483 430.019 435.898C437.232 409.931 424.537 345.014 316.053 293.079Z" fill="#0BB7CE"/>
<path d="M730.084 301.736C640.224 247.82 698.828 169.496 730.084 125.736L601.691 291.637L771.92 445.997C782.019 433.014 795.002 340.686 730.084 301.736Z" fill="#0BB7CE"/>
<path d="M538.174 437.92C538.191 437.958 538.209 437.979 538.226 437.98L538.216 437.946L538.174 437.92Z" fill="#0BB7CE"/>
<path fill-rule="evenodd" clip-rule="evenodd" d="M518.969 308.885C519.122 303.627 519.356 303.055 522.06 301.318C523.124 300.634 523.79 300.55 526.274 300.787C532.004 301.333 532.982 302.547 533.099 309.258C533.159 312.702 533.015 314.275 532.555 315.178C531.897 316.47 532.059 317.238 532.991 317.238C533.296 317.238 533.784 317.53 534.075 317.886C534.393 318.276 534.792 318.388 535.075 318.168C535.334 317.967 536.359 317.481 537.353 317.09C539.024 316.43 539.259 316.429 540.483 317.072C541.627 317.673 542.105 317.694 544.009 317.23C545.22 316.935 547.212 316.791 548.434 316.911C550.44 317.106 550.856 317.339 552.689 319.292C554.913 321.66 555.158 322.724 554.218 325.915C553.681 327.734 553.858 328.044 556.252 329.488C556.875 329.863 557.093 330.67 557.292 333.341C557.534 336.582 558.942 341.495 559.474 340.954C559.615 340.812 560.042 341.438 560.423 342.347C560.912 343.51 561.225 346.191 561.484 351.419C561.686 355.499 561.957 359.176 562.086 359.589C562.369 360.496 560.864 362.083 560.417 361.348C560.258 361.087 560.354 360.597 560.63 360.26C560.979 359.831 561.041 358.735 560.834 356.637C560.414 352.388 559.899 352.256 559.128 356.201C558.698 358.403 557.788 360.05 555.908 362.031C554.709 363.294 554.172 364.278 554.01 365.502C553.747 367.493 554.476 369.233 555.42 368.865C556.686 368.372 557.953 369.096 558.657 370.717C559.21 371.989 559.357 373.684 559.352 378.716C559.348 382.229 559.173 385.378 558.964 385.714C558.448 386.542 553.685 386.896 552.825 386.171C552.326 385.751 552.192 384.506 552.187 380.233C552.182 376.584 552.048 375.035 551.772 375.468C551.166 376.421 551.298 383.56 552.026 389.169C552.377 391.878 552.64 395.494 552.611 397.206C552.568 399.715 552.735 400.611 553.47 401.82C553.972 402.645 554.272 403.613 554.137 403.97C554.002 404.327 554.449 405.623 555.131 406.849C556.033 408.473 556.788 411.113 557.915 416.572C559.361 423.575 559.447 424.415 559.234 429.434C559.066 433.391 558.768 435.476 558.102 437.355C557.605 438.758 557.094 440.336 556.966 440.861L556.734 441.815L501.619 441.839V438.197C501.619 434.95 501.703 434.554 502.392 434.554C503.514 434.554 503.775 434.114 503.074 433.403C502.322 432.639 502.29 431.804 502.989 431.227C503.279 430.987 505.078 430.721 506.988 430.636C510.195 430.493 510.552 430.383 511.684 429.199C513.29 427.518 513.751 423.859 512.5 422.71C510.992 421.323 510.123 419.335 508.85 414.361C508.147 411.615 507.061 408.344 506.436 407.092C504.905 404.021 503.726 400.448 503.726 398.872C503.726 396.616 505.478 390.719 506.481 389.598C507.008 389.009 509.47 385.348 511.952 381.463C513.516 379.015 515.087 376.645 516.179 375.07L516.109 374.979L515.253 373.848C515.093 373.352 514.679 373.229 514.407 373.149C514.273 373.109 514.174 373.08 514.155 373.022L513.337 371.359C513.425 371.015 513.212 370.806 512.815 370.847C512.446 370.884 512.16 370.641 512.179 370.306C512.198 369.971 511.895 369.572 511.508 369.418C510.191 368.897 509.427 366.986 509.935 365.481C510.381 364.157 510.35 364.041 509.138 362.474C507.913 360.89 507.888 360.789 508.27 358.915C508.622 357.187 508.559 356.836 507.66 355.533C506.817 354.312 506.673 353.757 506.764 352.081C506.823 350.983 506.683 349.119 506.452 347.941C506.144 346.367 506.21 345.671 506.702 345.318C507.12 345.019 507.352 343.993 507.321 342.584C507.302 341.721 507.371 340.942 507.516 340.155C507.463 339.953 507.43 339.771 507.43 339.606C507.633 339.27 508.117 337.493 508.261 336.912C508.261 336.912 508.906 335.984 509.644 334.776C510.226 334.385 510.477 333.467 510.741 332.504C510.922 331.841 511.109 331.158 511.413 330.61C512.735 328.23 515.785 325.528 519.094 323.804C520.214 323.22 521.071 322.393 521.405 321.573C521.876 320.419 521.836 320.14 521.05 319.125C520.562 318.495 520.163 317.611 520.163 317.159C520.163 316.708 519.863 315.75 519.496 315.029C518.973 314.002 518.859 312.668 518.969 308.885ZM517.694 355.987C517.624 356.367 517.329 357.028 516.986 357.6C516.959 357.536 516.931 357.47 516.902 357.403C516.245 355.883 516.15 355.187 516.494 354.425C516.741 353.878 516.864 352.588 516.769 351.56C516.706 350.874 516.621 350.223 516.542 349.619L516.54 349.603C516.298 347.752 516.114 346.344 516.769 345.736C517.273 345.267 517.152 344.567 516.894 343.718L519.647 340.79L520.326 341.844C520.7 342.424 521.006 343.592 521.006 344.44C521.006 345.288 521.211 346.37 521.461 346.845C521.816 347.519 521.761 347.884 521.209 348.502C520.612 349.172 520.57 349.614 520.938 351.358C521.178 352.492 521.497 353.746 521.647 354.143C521.877 354.751 521.596 354.888 519.887 354.999C518.243 355.105 517.822 355.295 517.694 355.987ZM555.822 332.534C555.961 332.393 555.897 331.736 555.679 331.074C555.214 329.655 553.879 329.166 553.879 330.414C553.879 331.295 555.404 332.958 555.822 332.534ZM553.499 369.181C553.668 368.992 553.494 368.491 552.712 366.238L552.651 366.06C552.203 364.771 551.609 363.639 551.331 363.544C551.042 363.446 550.918 363.626 551.044 363.961C551.165 364.285 551.616 365.656 552.045 367.008C552.474 368.36 553.015 369.396 553.247 369.31C553.319 369.283 553.381 369.262 553.43 369.234C553.457 369.219 553.48 369.202 553.499 369.181ZM533.968 388.745C533.829 388.513 533.678 388.27 533.515 388.008L533.487 387.962C532.866 386.963 532.045 386.172 531.63 386.172C530.849 386.172 527.329 389.677 523.571 394.197C522.096 395.972 520.664 397.19 519.311 397.82L517.272 398.77L518.672 400.713C520.161 402.782 521.872 406.599 522.677 409.654C523.486 412.723 524.487 419.234 524.442 421.129C524.409 422.497 524.69 423.275 525.663 424.519C527.342 426.666 527.559 427.777 526.976 431.234C526.706 432.833 526.485 434.79 526.485 435.583C526.485 437.365 526.866 437.504 532.734 437.849L538.226 437.98C538.428 437.98 539.318 437.393 540.207 436.675C542.651 434.702 543.787 435.027 544.713 437.965C546.198 442.674 546.498 442.019 546.626 433.792C546.718 427.938 546.598 425.716 546.102 424.064C545.749 422.887 545.457 421.266 545.455 420.463C545.452 419.656 544.942 418.122 544.316 417.037C542.94 414.655 541.671 410.41 541.297 406.938C541.133 405.414 540.336 402.761 539.337 400.415C538.673 398.856 538.047 397.498 537.703 396.853L537.686 396.724C537.225 394.805 535.97 390.706 534.642 389.666C534.585 389.622 534.528 389.617 534.471 389.65C534.322 389.351 534.155 389.057 533.968 388.745Z" fill="#0BB7CE"/>
</svg>
