<svg width="214" height="214" viewBox="0 0 214 214" fill="none" xmlns="http://www.w3.org/2000/svg">
<path fill-rule="evenodd" clip-rule="evenodd" d="M58.2184 202.259C23.652 184.522 0 148.523 0 107C0 47.9055 47.9055 0 107 0C166.094 0 214 47.9055 214 107C214 166.094 166.094 214 107 214C100.657 214 94.4424 213.448 88.4024 212.389C88.3541 212.447 88.3058 212.505 88.2575 212.563C77.5531 210.75 67.4159 207.269 58.1227 202.397C58.1543 202.351 58.1861 202.305 58.2184 202.259ZM109.001 205.98C108.335 205.993 107.668 206 107 206C102.834 206 98.7287 205.743 94.6981 205.243C98.5554 201.118 101.555 198.445 102.477 198.445C103.237 198.445 104.741 199.901 105.879 201.74L105.93 201.825L105.972 201.893L105.978 201.901C106.258 202.355 106.518 202.777 106.761 203.183C107.103 203.756 107.409 204.297 107.682 204.848C107.785 204.787 107.891 204.796 107.995 204.878C108.334 205.145 108.67 205.521 109.001 205.98ZM139.456 200.557C140.801 200.09 142.133 199.596 143.451 199.074C142.467 198.966 141.687 198.761 141.311 198.443C140.397 197.669 140.153 195.377 140.143 187.508C140.135 180.789 139.888 177.937 139.383 178.735C138.391 180.301 138.478 190.943 139.456 200.557ZM152.971 194.702C153.149 192.277 153.267 188.618 153.271 184.716C153.28 175.45 153.011 172.328 151.998 169.987C150.709 167.002 148.387 165.667 146.067 166.576C144.338 167.254 143.001 164.05 143.483 160.383C143.78 158.129 144.765 156.318 146.961 153.993C150.405 150.345 152.073 147.312 152.861 143.257C154.274 135.993 155.218 136.236 155.987 144.061C156.367 147.922 156.254 149.942 155.614 150.73C155.107 151.352 154.932 152.254 155.223 152.734C156.043 154.088 158.8 151.166 158.281 149.495C158.045 148.735 157.548 141.965 157.178 134.451C156.703 124.825 156.129 119.889 155.234 117.746C154.536 116.073 153.754 114.92 153.496 115.183C152.52 116.179 149.94 107.132 149.497 101.164C149.132 96.2454 148.733 94.7593 147.592 94.0686C143.205 91.411 142.881 90.8386 143.864 87.4903C145.588 81.6144 145.138 79.6545 141.064 75.2946C137.704 71.698 136.943 71.2699 133.267 70.9096C131.027 70.6897 127.378 70.9545 125.158 71.4985C121.669 72.3532 120.794 72.3129 118.697 71.2068C116.455 70.0227 116.024 70.025 112.962 71.2392C111.141 71.9606 109.263 72.8546 108.789 73.2252C108.269 73.6303 107.54 73.423 106.957 72.7056C106.423 72.0504 105.53 71.5135 104.97 71.5135C103.263 71.5135 102.966 70.0991 104.172 67.719C105.014 66.0563 105.279 63.1605 105.169 56.8195C104.953 44.4606 103.162 42.2263 92.6627 41.2203C88.1118 40.7843 86.8907 40.9389 84.9407 42.1987C79.9856 45.3972 79.557 46.4505 79.2774 56.132C79.076 63.0982 79.285 65.5548 80.2425 67.4447C80.9151 68.7723 81.4653 70.5374 81.4653 71.3677C81.4653 72.1986 82.1969 73.8267 83.0905 74.9871C84.5299 76.8557 84.6044 77.3704 83.7418 79.4952C83.1296 81.005 81.5589 82.5282 79.5064 83.6027C73.4434 86.7768 67.8556 91.7523 65.433 96.135C64.8762 97.1423 64.5337 98.3989 64.2018 99.6169L64.2005 99.6224L64.1991 99.6259C63.7164 101.398 63.2563 103.087 62.1914 103.807C60.8395 106.03 59.6562 107.74 59.6562 107.74C59.3935 108.809 58.507 112.082 58.1352 112.7C58.1352 113.004 58.1947 113.339 58.2927 113.711C58.0269 115.16 57.8996 116.594 57.9342 118.183C57.9919 120.778 57.5659 122.667 56.8001 123.218C55.899 123.867 55.7774 125.15 56.3427 128.047C56.7651 130.217 57.022 133.648 56.9137 135.671C56.7478 138.756 57.0122 139.778 58.555 142.026C60.2028 144.427 60.3191 145.072 59.6739 148.255C58.9743 151.706 59.0199 151.89 61.2637 154.808C63.4848 157.693 63.5412 157.907 62.7234 160.345C61.7934 163.115 63.1928 166.634 65.606 167.595C66.3164 167.877 66.8706 168.613 66.836 169.23C66.8018 169.846 67.3258 170.294 68.0015 170.225C68.7287 170.15 69.1183 170.535 68.9586 171.168L70.4574 174.23C70.492 174.337 70.6734 174.391 70.9174 174.464C71.4166 174.612 72.1753 174.839 72.4677 175.751L74.0379 177.834L74.1657 178.002C72.1647 180.901 69.2855 185.265 66.4207 189.772C65.1501 191.771 63.8825 193.737 62.6942 195.557C30.2622 179.299 8 145.749 8 107C8 52.3238 52.3238 8 107 8C161.676 8 206 52.3238 206 107C206 145.082 184.498 178.142 152.971 194.702ZM75.6441 145.834C76.2719 144.78 76.8128 143.563 76.9414 142.863C77.1766 141.588 77.9464 141.24 80.9591 141.043C84.0902 140.839 84.6053 140.588 84.1842 139.468C83.9087 138.736 83.3252 136.427 82.886 134.339C82.2111 131.129 82.2884 130.315 83.3825 129.081C84.3928 127.942 84.4935 127.271 83.8439 126.03C83.3852 125.155 83.0094 123.162 83.0094 121.601C83.0094 120.039 82.4489 117.888 81.7644 116.821L80.5194 114.881L75.4759 120.271C75.9476 121.835 76.1703 123.124 75.2465 123.987C74.0468 125.107 74.3836 127.699 74.8268 131.107L74.8308 131.138L74.8375 131.191C74.9799 132.288 75.132 133.469 75.2465 134.711C75.4209 136.605 75.1946 138.98 74.7421 139.987C74.1124 141.391 74.2868 142.671 75.4901 145.47L75.5554 145.623L75.6441 145.834ZM146.542 96.9888C146.941 98.2077 147.058 99.4179 146.804 99.6773C146.038 100.459 143.244 97.3964 143.244 95.7739C143.244 93.4758 145.689 94.3761 146.542 96.9888ZM141.105 161.739C142.539 165.886 142.858 166.81 142.547 167.157C142.512 167.196 142.469 167.227 142.42 167.255C142.341 167.3 142.244 167.336 142.132 167.377L142.085 167.395C141.661 167.553 140.669 165.646 139.883 163.157C139.096 160.667 138.27 158.143 138.049 157.547C137.819 156.93 138.045 156.598 138.574 156.779C139.085 156.952 140.173 159.037 140.992 161.411L141.105 161.739Z" fill="#040404"/>
</svg>
