<svg xmlns="http://www.w3.org/2000/svg" xmlns:xlink="http://www.w3.org/1999/xlink" width="130.151" height="113" viewBox="0 0 130.151 113"><defs><style>.a,.m{fill:none;}.b{fill:#f5f5f5;}.c{fill:#e6e6e6;}.d{fill:#0fc1a6;}.e,.o{opacity:0.15;}.f,.p{fill:#fff;}.g{fill:#37474f;}.h{fill:#263238;}.i,.l{fill:#455a64;}.j{fill:#fafafa;}.k{fill:#ebebeb;}.l,.n{opacity:0.5;}.m{stroke:#e0e0e0;stroke-miterlimit:10;stroke-width:0.75px;}.p,.t{opacity:0.4;}.q{clip-path:url(#a);}.r{fill:#ffa8a7;}.s{fill:#f0f0f0;}.u{fill:#f28f8f;}.v{opacity:0.1;}</style><clipPath id="a"><path class="a" d="M212.11,91.306l-20.386-11.77c-.365-.211-.661-.04-.661.382v31.311a1.46,1.46,0,0,0,.662,1.145l20.386,11.749c.365.21.661.039.661-.383V92.451A1.462,1.462,0,0,0,212.11,91.306Z" transform="translate(-191.062 -79.446)"/></clipPath></defs><g transform="translate(0 44.897)"><ellipse class="b" cx="59.869" cy="34.052" rx="59.869" ry="34.052"/></g><g transform="translate(7.574 76.843)"><ellipse class="c" cx="14.317" cy="8.976" rx="14.317" ry="8.976" transform="translate(0)"/></g><g transform="translate(112.81 46.808)"><g transform="translate(0)"><g transform="translate(3.612)"><path class="d" d="M28.1,236.445a20.958,20.958,0,0,1,1.415-6.02c1.256-3.1,3.672-6.225,6.455-6.814s3.961,1.282,3.374,3.121c-.506,1.584-2.574,2.9-4.144,4.28s-4.5,4.722-5.317,7.949l-1.57.171Z" transform="translate(-28.097 -223.5)"/></g><g class="e" transform="translate(3.612)"><path d="M28.1,236.445a20.958,20.958,0,0,1,1.415-6.02c1.256-3.1,3.672-6.225,6.455-6.814s3.961,1.282,3.374,3.121c-.506,1.584-2.574,2.9-4.144,4.28s-4.5,4.722-5.317,7.949l-1.57.171Z" transform="translate(-28.097 -223.5)"/></g><g transform="translate(4.508 1.21)"><path class="f" d="M34.544,241.032a.175.175,0,0,0,.174-.169c.292-8.112,8.227-12.648,8.307-12.693a.175.175,0,0,0-.171-.305c-.082.046-8.187,4.68-8.486,12.985a.176.176,0,0,0,.169.181Z" transform="translate(-34.369 -227.843)"/></g><g transform="translate(0 10.977)"><path class="d" d="M22.057,279.159a6.248,6.248,0,0,0,4.157.589A3.9,3.9,0,0,0,28.4,278.7a3.924,3.924,0,0,0,.943-2.257,2.688,2.688,0,0,1,.381-1.065c.542-.746,1.627-.733,2.529-.927A3.75,3.75,0,0,0,35.08,272a2.766,2.766,0,0,0-1.446-3.283l1.49-.955a6.485,6.485,0,0,0,1.275-.975,2.185,2.185,0,0,0,.644-1.435,2.105,2.105,0,0,0-1.31-1.822,4.447,4.447,0,0,0-2.334-.237,10.413,10.413,0,0,0-2.328.548,1.66,1.66,0,0,1-.652.147,1.721,1.721,0,0,1-.8-.366c-1.706-1.126-4.482-1.041-5.4,1.082-.135.312-.215.646-.358.955-.531,1.143-2.022.8-2.984,1.334a2.435,2.435,0,0,0-1.121,1.747,10.62,10.62,0,0,0,.332,3.538c.2,1.084.474,2.155.776,3.215q.374,1.31.812,2.6C21.745,278.275,21.88,279.047,22.057,279.159Z" transform="translate(-19.703 -262.901)"/></g><path class="f" d="M26.527,280a15.652,15.652,0,0,1,4.073-6.132.173.173,0,0,1,.094-.089,20.937,20.937,0,0,1,1.653-1.4,8.428,8.428,0,0,0-.564-4.441.175.175,0,1,1,.316-.148,8.681,8.681,0,0,1,.642,4.3,26.862,26.862,0,0,1,7.673-3.844.177.177,0,0,1,.215.123.175.175,0,0,1-.122.215,26.046,26.046,0,0,0-9.1,5.023,11.989,11.989,0,0,1,5.633.829.175.175,0,0,1-.067.336.17.17,0,0,1-.066-.013c-.035-.014-3.548-1.435-6.03-.666a15.337,15.337,0,0,0-4.014,6.027.175.175,0,0,1-.33-.116Z" transform="translate(-25.193 -255.377)"/></g></g><g transform="translate(29.811)"><g transform="translate(0)"><path class="g" d="M158.992,244.942a2.6,2.6,0,0,1-1.212,2.013L123.81,266.567a2.679,2.679,0,0,1-2.425,0L74.906,239.732a2.278,2.278,0,0,1,0-4.027l33.969-19.612a2.681,2.681,0,0,1,2.425,0l46.479,26.835A2.6,2.6,0,0,1,158.992,244.942Z" transform="translate(-73.694 -171.14)"/><path class="h" d="M73.692,334.673V337.3a2.473,2.473,0,0,0,1.212-.288l33.97-19.613a2.27,2.27,0,0,0,.123-3.948c.543.389.5.96-.123,1.322L74.9,334.382A2.471,2.471,0,0,1,73.692,334.673Z" transform="translate(-24.789 -241.581)"/><path class="i" d="M115.57,127.319a2.6,2.6,0,0,0,1.137-2.056V84.725a2.679,2.679,0,0,0-1.212-2.1L69.016,55.791A2.278,2.278,0,0,0,65.529,57.8V98.341a2.679,2.679,0,0,0,1.212,2.1l46.479,26.835A2.6,2.6,0,0,0,115.57,127.319Z" transform="translate(-29.135 -55.487)"/><path class="h" d="M65.532,199.966a2.269,2.269,0,0,0,3.343-2.086V157.342a2.446,2.446,0,0,0-.355-1.193l-2.274,1.31v0a2.484,2.484,0,0,1,.356,1.193v40.539C66.6,199.91,66.134,200.232,65.532,199.966Z" transform="translate(18.697 -128.105)"/><path class="g" d="M122.6,89.8v40.537c0,.773-.543,1.087-1.212.7L74.906,104.2a2.679,2.679,0,0,1-1.212-2.1V61.561c0-.773.543-1.087,1.212-.7L121.386,87.7A2.679,2.679,0,0,1,122.6,89.8Z" transform="translate(-37.3 -59.244)"/><path class="i" d="M159.618,244.328l-33.97,19.612a2.681,2.681,0,0,1-2.425,0L76.745,237.106a.739.739,0,0,1,0-1.4l33.969-19.612a2.681,2.681,0,0,1,2.425,0l46.479,26.835A.739.739,0,0,1,159.618,244.328Z" transform="translate(-75.533 -171.14)"/><path class="j" d="M123.314,98.452,78.5,72.587c-.4-.232-.727-.044-.727.42V108.1a1.607,1.607,0,0,0,.727,1.26l44.812,25.865c.4.232.727.044.727-.42V99.712A1.607,1.607,0,0,0,123.314,98.452Z" transform="translate(-39.881 -67.751)"/><path class="g" d="M138.11,249.55,94.967,224.641a1.341,1.341,0,0,0-1.212,0l-2.206,1.274a.369.369,0,0,0,0,.7l43.149,24.9a1.341,1.341,0,0,0,1.212,0l2.2-1.27A.369.369,0,0,0,138.11,249.55Z" transform="translate(-57.968 -177.411)"/><path class="h" d="M169.89,261.333l-43.142-24.908a1.339,1.339,0,0,0-1.212,0l-13.573,7.836a.369.369,0,0,0,0,.7l43.093,24.874a1.345,1.345,0,0,0,1.214,0l13.619-7.806A.368.368,0,0,0,169.89,261.333Z" transform="translate(-95.435 -185.911)"/><path class="i" d="M134.37,250.369l-1.351-.78c-.057-.033-.054-.089.008-.125l1.562-.9a.238.238,0,0,1,.215,0l1.351.78c.057.033.054.089-.008.125l-1.562.9A.239.239,0,0,1,134.37,250.369Zm2.666-3.1,1.351.78c.057.033.054.089-.008.125l-1.562.9a.239.239,0,0,1-.216,0l-1.351-.78c-.057-.033-.054-.089.008-.124l1.562-.9A.238.238,0,0,1,137.036,247.27Zm4.364,2.52,2.286,1.32c.057.033.054.089-.008.125l-1.562.9a.239.239,0,0,1-.216,0l-2.286-1.32c-.057-.033-.054-.089.008-.124l1.562-.9A.238.238,0,0,1,141.4,249.79Zm-2.39-1.38,1.351.78c.057.033.054.089-.008.124l-1.562.9a.238.238,0,0,1-.215,0l-1.351-.78c-.057-.033-.054-.089.008-.125l1.562-.9A.239.239,0,0,1,139.01,248.41Zm5.3,3.06,1.351.78c.058.033.054.089-.008.125l-1.562.9a.238.238,0,0,1-.215,0l-1.351-.78c-.057-.033-.054-.089.008-.124l1.562-.9A.238.238,0,0,1,144.309,251.469Zm1.974,1.14,1.351.78c.057.033.054.089-.008.125l-1.562.9a.238.238,0,0,1-.216,0l-1.351-.78c-.057-.033-.054-.089.008-.125l1.562-.9A.237.237,0,0,1,146.283,252.609Zm-6.144,3.667-1.351-.78c-.057-.033-.054-.089.008-.124l1.562-.9a.238.238,0,0,1,.216,0l1.351.78c.058.033.054.089-.008.125l-1.562.9A.238.238,0,0,1,140.14,256.277Zm1.974,1.14-1.351-.78c-.057-.033-.054-.089.008-.125l1.562-.9a.239.239,0,0,1,.215,0l1.351.78c.057.033.054.089-.008.124l-1.562.9A.238.238,0,0,1,142.114,257.416Zm1.974,1.14-1.351-.78c-.057-.033-.054-.089.008-.124l1.562-.9a.24.24,0,0,1,.216,0l1.351.78c.058.033.054.089-.008.124l-1.562.9A.238.238,0,0,1,144.088,258.556Zm1.974,1.14-1.351-.78c-.057-.033-.054-.089.008-.124l1.562-.9a.238.238,0,0,1,.215,0l1.351.78c.057.033.054.089-.008.125l-1.562.9A.238.238,0,0,1,146.062,259.7Zm-9.718-8.187-1.351-.78c-.057-.033-.054-.089.008-.125l1.562-.9a.24.24,0,0,1,.215,0l1.351.78c.057.033.054.089-.008.124l-1.562.9A.239.239,0,0,1,136.344,251.509Zm1.821,3.628-3.013-1.74c-.057-.033-.054-.089.008-.125l3.793-2.19a.238.238,0,0,1,.215,0l1.559.9c.057.033.054.089-.008.125l-2.008,1.159c-.062.036-.065.091-.008.125l1.247.72c.057.033.054.089-.008.124l-1.562.9A.238.238,0,0,1,138.165,255.137Zm10.092-1.387,1.351.78c.057.033.054.089-.008.125l-1.562.9a.239.239,0,0,1-.215,0l-1.351-.78c-.057-.033-.054-.089.008-.125l1.562-.9A.238.238,0,0,1,148.258,253.749Zm1.974,1.14,1.351.78c.057.033.054.089-.008.125l-1.562.9a.238.238,0,0,1-.216,0l-1.351-.78c-.057-.033-.054-.089.008-.125l1.562-.9A.239.239,0,0,1,150.232,254.889ZM160.1,267.67a.239.239,0,0,1-.216,0l-1.351-.78c-.057-.033-.054-.089.008-.124l1.562-.9a.239.239,0,0,1,.216,0l1.351.78c.057.033.054.089-.008.125Zm5.928-3.663,1.351.78c.057.033.054.089-.008.125l-1.562.9a.238.238,0,0,1-.216,0l-1.351-.78c-.057-.033-.054-.089.008-.124l1.562-.9A.238.238,0,0,1,166.026,264.008Zm-3.177,2.674a.239.239,0,0,1-.216,0l-1.351-.78c-.057-.033-.054-.089.008-.124l1.562-.9a.238.238,0,0,1,.215,0l1.351.78c.057.033.054.089-.008.125Zm-6.237,1.681-1.351-.78c-.057-.033-.054-.089.008-.125l1.562-.9a.238.238,0,0,1,.215,0l1.351.78c.057.033.054.089-.008.125l-1.562.9A.239.239,0,0,1,156.612,268.363Zm2.19,1.135a.238.238,0,0,1-.215,0l-1.351-.78c-.057-.033-.054-.089.008-.124l1.562-.9a.239.239,0,0,1,.215,0l1.351.78c.057.033.054.089-.008.124Zm5.25-6.631,1.351.78c.058.033.054.089-.008.124l-1.562.9a.238.238,0,0,1-.215,0l-1.351-.78c-.057-.033-.054-.089.008-.125l1.562-.9A.24.24,0,0,1,164.052,262.868Zm-9.871-5.7,1.351.78c.057.033.054.089-.008.125l-1.562.9a.239.239,0,0,1-.216,0l-1.351-.78c-.057-.033-.054-.089.008-.124l1.562-.9A.238.238,0,0,1,154.181,257.169Zm7.9,4.559,1.351.78c.057.033.054.089-.008.124l-1.562.9a.238.238,0,0,1-.216,0l-1.351-.78c-.057-.033-.054-.089.008-.125l1.562-.9A.238.238,0,0,1,162.077,261.728Zm-9.871-5.7,1.351.78c.057.033.054.089-.008.124l-1.562.9a.238.238,0,0,1-.215,0l-1.351-.78c-.057-.033-.054-.089.008-.125l1.562-.9A.239.239,0,0,1,152.206,256.029Zm3.948,2.28,1.351.78c.057.033.054.089-.008.124l-1.562.9a.238.238,0,0,1-.216,0l-1.351-.78c-.057-.033-.054-.089.008-.124l1.562-.9A.239.239,0,0,1,156.155,258.308Zm1.974,1.14,1.351.78c.057.033.054.089-.008.124l-1.562.9a.238.238,0,0,1-.215,0l-1.351-.78c-.057-.033-.054-.089.008-.125l1.562-.9A.24.24,0,0,1,158.129,259.448Zm1.974,1.14,1.351.78c.057.033.054.089-.008.125l-1.562.9a.239.239,0,0,1-.216,0l-1.351-.78c-.057-.033-.054-.089.008-.125l1.562-.9A.238.238,0,0,1,160.1,260.588Zm-10.092,1.387-1.351-.78c-.057-.033-.054-.089.008-.125l1.562-.9a.239.239,0,0,1,.215,0l1.351.78c.057.033.054.089-.008.125l-1.562.9A.239.239,0,0,1,150.011,261.976ZM132.672,244.75l1.351.78c.057.033.054.089-.008.125l-1.562.9a.24.24,0,0,1-.216,0l-1.351-.78c-.057-.033-.054-.089.008-.124l1.562-.9A.239.239,0,0,1,132.672,244.75Zm2.39,1.38,1.351.78c.057.033.054.089-.008.124l-1.562.9a.239.239,0,0,1-.216,0l-1.351-.78c-.057-.033-.054-.089.008-.125l1.562-.9A.24.24,0,0,1,135.062,246.13Zm-4.364-2.519,1.351.78c.057.033.054.089-.008.125l-1.562.9a.238.238,0,0,1-.215,0l-1.351-.78c-.057-.033-.054-.089.008-.125l1.562-.9A.239.239,0,0,1,130.7,243.611Zm10.219,10.538-1.351-.78c-.057-.033-.054-.089.008-.125l1.562-.9a.238.238,0,0,1,.216,0l1.351.78c.057.033.054.089-.008.125l-1.562.9A.239.239,0,0,1,140.916,254.148Zm-12.409-11.673a.239.239,0,0,1,.216,0l1.351.78c.057.033.054.089-.008.125l-1.562.9a.238.238,0,0,1-.215,0l-1.351-.78c-.058-.033-.054-.089.008-.124Zm19.529,18.361-1.351-.78c-.057-.033-.054-.089.008-.125l1.562-.9a.238.238,0,0,1,.216,0l1.351.78c.057.033.054.089-.008.124l-1.562.9A.238.238,0,0,1,148.037,260.836Zm-24.211-13.978-1.351-.78c-.057-.033-.054-.089.008-.125l1.562-.9a.238.238,0,0,1,.215,0l1.351.78c.057.033.054.089-.008.125l-1.562.9A.238.238,0,0,1,123.826,246.858Zm4.206-.148-1.351-.78c-.057-.033-.054-.089.008-.124l1.562-.9a.238.238,0,0,1,.215,0l1.351.78c.057.033.054.089-.008.125l-1.562.9A.238.238,0,0,1,128.032,246.71Zm-1.755-2.946a.239.239,0,0,1,.216,0l1.351.78c.057.033.054.089-.008.124l-1.562.9a.238.238,0,0,1-.215,0l-1.351-.78c-.057-.033-.054-.089.008-.125Zm-.416-.24-3.793,2.19a.238.238,0,0,1-.215,0l-1.351-.78c-.057-.033-.054-.089.008-.125l3.793-2.19a.238.238,0,0,1,.215,0l1.351.78C125.926,243.432,125.922,243.488,125.861,243.524Zm4.58,2.515,1.351.78c.057.033.054.089-.008.124l-1.562.9a.239.239,0,0,1-.216,0l-1.351-.78c-.057-.033-.054-.089.008-.124l1.562-.9A.238.238,0,0,1,130.44,246.039Zm14.859,8.579,1.351.78c.057.033.054.089-.008.124l-1.562.9a.238.238,0,0,1-.215,0l-1.351-.78c-.057-.033-.054-.089.008-.124l1.562-.9A.239.239,0,0,1,145.3,254.617Zm-19.283-6.624a.24.24,0,0,1-.216,0l-1.351-.78c-.057-.033-.054-.089.008-.125l1.562-.9a.238.238,0,0,1,.215,0l1.351.78c.057.033.054.089-.008.124Zm17.309,5.484,1.351.78c.057.033.054.089-.008.124l-1.562.9a.238.238,0,0,1-.216,0l-1.351-.78c-.057-.033-.054-.089.008-.125l1.562-.9A.24.24,0,0,1,143.325,253.478Zm14.8,13.053a.238.238,0,0,1-.215,0l-1.351-.78c-.057-.033-.054-.089.008-.124l1.562-.9a.238.238,0,0,1,.215,0l1.351.78c.057.033.054.089-.008.124Zm2.97-2.794,1.351.78c.057.033.054.089-.008.124l-1.562.9a.238.238,0,0,1-.215,0l-1.351-.78c-.057-.033-.054-.089.008-.125l1.562-.9A.239.239,0,0,1,161.093,263.736Zm-5.159,1.659-1.351-.78c-.057-.033-.054-.089.008-.125l1.562-.9a.238.238,0,0,1,.216,0l1.351.78c.057.033.054.089-.008.125l-1.562.9A.238.238,0,0,1,155.934,265.4Zm-1.974-1.14-1.351-.78c-.058-.033-.054-.089.008-.125l1.562-.9a.238.238,0,0,1,.215,0l1.351.78c.057.033.054.089-.008.125l-1.562.9A.238.238,0,0,1,153.959,264.255Zm-1.974-1.14-1.351-.78c-.057-.033-.054-.089.008-.124l1.562-.9a.238.238,0,0,1,.216,0l1.351.78c.057.033.054.089-.008.124l-1.562.9A.238.238,0,0,1,151.985,263.115Zm7.133-.519,1.351.78c.057.033.054.089-.008.125l-1.562.9a.239.239,0,0,1-.216,0l-1.351-.78c-.057-.033-.054-.089.008-.124l1.562-.9A.238.238,0,0,1,159.119,262.6Zm-1.974-1.14,1.351.78c.058.033.054.089-.008.124l-1.562.9a.239.239,0,0,1-.215,0l-1.351-.78c-.057-.033-.054-.089.008-.124l1.562-.9A.239.239,0,0,1,157.145,261.457Zm-7.9-4.559,1.351.78c.057.033.054.089-.008.124l-1.562.9a.238.238,0,0,1-.215,0l-1.351-.78c-.057-.033-.054-.089.008-.125l1.562-.9A.238.238,0,0,1,149.247,256.9Zm1.974,1.14,1.351.78c.057.033.054.089-.008.124l-1.562.9a.239.239,0,0,1-.216,0l-1.351-.78c-.057-.033-.054-.089.008-.125l1.562-.9A.238.238,0,0,1,151.222,258.037Zm-3.949-2.28,1.351.78c.057.033.054.089-.008.125l-1.562.9a.239.239,0,0,1-.216,0l-1.351-.78c-.058-.033-.054-.089.008-.124l1.562-.9A.238.238,0,0,1,147.273,255.757Zm7.9,4.559,1.351.78c.057.033.054.089-.008.124l-1.562.9a.238.238,0,0,1-.215,0l-1.351-.78c-.057-.033-.054-.089.008-.125l1.562-.9A.238.238,0,0,1,155.17,260.316Zm-1.974-1.14,1.351.78c.057.033.054.089-.008.125l-1.562.9a.238.238,0,0,1-.215,0l-1.351-.78c-.057-.033-.054-.089.008-.124l1.562-.9A.239.239,0,0,1,153.2,259.177Zm1.441,8.047-1.351-.78c-.057-.033-.054-.089.008-.124l1.562-.9a.238.238,0,0,1,.216,0l1.351.78c.057.033.054.089-.008.125l-1.562.9A.24.24,0,0,1,154.637,267.223Zm11.585-1.17,1.562-.9a.238.238,0,0,1,.216,0l1.351.78c.057.033.054.089-.008.124l-1.562.9a.238.238,0,0,1-.216,0l-1.351-.78C166.158,266.145,166.161,266.089,166.223,266.054Zm-2.958.868,1.562-.9a.239.239,0,0,1,.216,0l2.078,1.2c.057.033.054.089-.008.124l-1.562.9a.238.238,0,0,1-.215,0l-2.078-1.2C163.2,267.013,163.2,266.957,163.264,266.922Zm5.355-2.612,1.562-.9a.238.238,0,0,1,.215,0l1.663.96c.057.033.054.089-.008.125l-1.562.9a.24.24,0,0,1-.215,0l-1.663-.96C168.554,264.4,168.557,264.346,168.619,264.31Zm-1.275-.736a.238.238,0,0,1-.215,0l-1.351-.78c-.058-.033-.054-.089.008-.125l1.562-.9a.239.239,0,0,1,.216,0l1.351.78c.057.033.054.089-.008.124Zm-6.831,4.336,1.562-.9a.239.239,0,0,1,.215,0l2.6,1.5c.057.033.054.089-.008.124l-1.562.9a.239.239,0,0,1-.216,0l-2.6-1.5C160.448,268,160.451,267.946,160.513,267.91Zm-1.3,1.828,1.562-.9a.238.238,0,0,1,.215,0l1.662.96c.057.033.054.089-.008.124l-1.562.9a.238.238,0,0,1-.215,0l-1.663-.96C159.152,269.83,159.155,269.774,159.217,269.738ZM152.666,255.1a.238.238,0,0,1-.215,0l-1.351-.78c-.057-.033-.054-.089.008-.124l1.562-.9a.239.239,0,0,1,.216,0l1.351.78c.057.033.054.089-.008.125Zm3.949,2.28a.24.24,0,0,1-.215,0l-1.351-.78c-.057-.033-.054-.089.008-.124l1.562-.9a.238.238,0,0,1,.216,0l1.351.78c.057.033.054.089-.008.125Zm8.756,5.055a.238.238,0,0,1-.215,0l-1.351-.78c-.057-.033-.054-.089.008-.125l1.562-.9a.239.239,0,0,1,.215,0l1.351.78c.057.033.054.089-.008.124Zm-10.73-6.2a.238.238,0,0,1-.216,0l-1.351-.78c-.057-.033-.054-.089.008-.125l1.562-.9a.238.238,0,0,1,.215,0l1.351.78c.057.033.054.089-.008.125Zm3.949,2.28a.239.239,0,0,1-.216,0l-1.351-.78c-.058-.033-.054-.089.008-.125l1.562-.9a.239.239,0,0,1,.216,0l1.351.78c.057.033.054.089-.008.125Zm-.457,11.366a.238.238,0,0,1,.216,0l2.078,1.2c.057.033.054.089-.008.125l-1.562.9a.238.238,0,0,1-.215,0l-2.078-1.2c-.057-.033-.054-.089.008-.125Zm3.29-9.731a.238.238,0,0,1-.215,0l-1.351-.78c-.057-.033-.054-.089.008-.125l1.562-.9a.24.24,0,0,1,.216,0l1.351.78c.057.033.054.089-.008.124Zm1.974,1.14a.239.239,0,0,1-.216,0l-1.351-.78c-.057-.033-.054-.089.008-.124l1.562-.9a.238.238,0,0,1,.215,0l1.351.78c.057.033.054.089-.008.125Zm-41.84-12.527a.238.238,0,0,1,.215,0l3.325,1.92c.057.033.054.089-.008.125l-1.562.9a.239.239,0,0,1-.216,0l-3.325-1.92c-.057-.033-.054-.089.008-.124Zm4.364,2.52a.239.239,0,0,1,.216,0l1.351.78c.057.033.054.089-.008.125l-1.562.9a.238.238,0,0,1-.215,0l-1.351-.78c-.057-.033-.054-.089.008-.124Zm26.742,14.8-1.351-.78c-.057-.033-.054-.089.008-.125l1.562-.9a.239.239,0,0,1,.215,0l1.351.78c.057.033.054.089-.008.124l-1.562.9A.238.238,0,0,1,152.663,266.083Zm-22.794-12.516a.239.239,0,0,1,.216,0l1.351.78c.057.033.054.089-.008.125l-1.562.9a.239.239,0,0,1-.215,0l-1.351-.78c-.057-.033-.054-.089.008-.124Zm-10.287-5.939a.239.239,0,0,1,.216,0l1.351.78c.057.033.054.089-.008.124l-1.562.9a.24.24,0,0,1-.215,0l-1.351-.78c-.057-.033-.054-.089.008-.124Zm-3.536-.238,3.793-2.19a.239.239,0,0,1,.216,0l1.351.78c.057.033.054.089-.008.124l-3.793,2.19a.24.24,0,0,1-.216,0l-1.351-.78C115.981,247.482,115.984,247.426,116.046,247.39Zm21.2,10.436a.239.239,0,0,1,.215,0l1.663.96c.057.033.054.089-.008.125l-1.562.9a.239.239,0,0,1-.216,0l-1.662-.96c-.057-.033-.054-.089.008-.124Zm-4.988-2.88a.239.239,0,0,1,.216,0l2.078,1.2c.057.033.054.089-.008.125l-1.562.9a.24.24,0,0,1-.216,0l-2.078-1.2c-.057-.033-.054-.089.008-.125Zm9.559,5.519a.239.239,0,0,1,.216,0l11.118,6.419c.057.033.054.089-.008.124l-1.562.9a.238.238,0,0,1-.215,0l-11.118-6.419c-.057-.033-.054-.089.008-.125Zm11.741,6.779a.238.238,0,0,1,.216,0l1.663.96c.057.033.054.089-.008.125l-1.562.9a.239.239,0,0,1-.216,0l-1.663-.96c-.057-.033-.054-.089.008-.124Zm-14.027-8.1a.238.238,0,0,1,.216,0l1.662.96c.057.033.054.089-.008.125l-1.562.9a.238.238,0,0,1-.216,0l-1.662-.96c-.057-.033-.054-.089.008-.124Zm16.313,9.419a.239.239,0,0,1,.216,0l1.662.96c.057.033.054.089-.008.125l-1.562.9a.238.238,0,0,1-.215,0l-1.663-.96c-.057-.033-.054-.089.008-.125ZM134.96,256.507a.239.239,0,0,1,.216,0l1.663.96c.057.033.054.089-.008.124l-1.562.9a.238.238,0,0,1-.215,0l-1.663-.96c-.057-.033-.054-.089.008-.124Zm-7.065-4.079a.239.239,0,0,1,.215,0l1.351.78c.057.033.054.089-.008.124l-1.562.9a.239.239,0,0,1-.216,0l-1.351-.78c-.057-.033-.054-.089.008-.125Zm-4.326-3.142-1.351-.78c-.057-.033-.054-.089.008-.124l1.562-.9a.238.238,0,0,1,.215,0l1.351.78c.057.033.054.089-.008.125l-1.562.9A.238.238,0,0,1,123.569,249.286Zm8.827-.057-1.351-.78c-.057-.033-.054-.089.008-.125l1.562-.9a.238.238,0,0,1,.216,0l1.351.78c.057.033.054.089-.008.125l-1.562.9A.238.238,0,0,1,132.4,249.229Zm4.473,7.736-3.949-2.279c-.057-.033-.054-.089.008-.125l1.562-.9a.238.238,0,0,1,.215,0l3.949,2.279c.057.033.054.089-.008.125l-1.562.9A.238.238,0,0,1,136.869,256.965Zm-11.11-6.543a.238.238,0,0,1-.215,0l-1.351-.78c-.057-.033-.054-.089.008-.125l1.562-.9a.239.239,0,0,1,.216,0l1.351.78c.057.033.054.089-.008.124Zm2.016-1.284-1.351-.78c-.057-.033-.054-.089.008-.124l1.562-.9a.239.239,0,0,1,.216,0l1.351.78c.057.033.054.089-.008.125l-1.562.9A.238.238,0,0,1,127.775,249.138Zm11.069,8.967-1.351-.78c-.057-.033-.054-.089.008-.124l1.562-.9a.238.238,0,0,1,.216,0l1.351.78c.057.033.054.089-.008.124l-1.562.9A.238.238,0,0,1,138.844,258.1Zm-8.721-5.164a.238.238,0,0,1-.216,0l-1.351-.78c-.057-.033-.054-.089.008-.125l1.562-.9a.239.239,0,0,1,.215,0l1.351.78c.057.033.054.089-.008.124ZM148.714,263.8l-1.351-.78c-.057-.033-.054-.089.008-.124l1.562-.9a.239.239,0,0,1,.216,0l1.351.78c.057.033.054.089-.008.125l-1.562.9A.239.239,0,0,1,148.714,263.8Zm-1.974-1.14-1.351-.78c-.057-.033-.054-.089.008-.125l1.562-.9a.239.239,0,0,1,.215,0l1.351.78c.058.033.054.089-.008.124l-1.562.9A.238.238,0,0,1,146.74,262.664Zm3.949,2.28-1.351-.78c-.057-.033-.054-.089.008-.124l1.562-.9a.238.238,0,0,1,.216,0l1.351.78c.058.033.054.089-.008.125l-1.562.9A.239.239,0,0,1,150.689,264.944Zm-7.9-4.56-1.351-.78c-.057-.033-.054-.089.008-.124l1.562-.9a.238.238,0,0,1,.216,0l1.351.78c.057.033.054.089-.008.124l-1.562.9A.238.238,0,0,1,142.792,260.384Zm1.974,1.14-1.351-.78c-.058-.033-.054-.089.008-.124l1.562-.9a.238.238,0,0,1,.216,0l1.351.78c.057.033.054.089-.008.125l-1.562.9A.238.238,0,0,1,144.766,261.524Zm-3.949-2.279-1.351-.78c-.057-.033-.054-.089.008-.125l1.562-.9a.238.238,0,0,1,.215,0l1.351.78c.057.033.054.089-.008.124l-1.562.9A.239.239,0,0,1,140.818,259.244Zm-9.032-16.862a.238.238,0,0,1-.216,0l-1.351-.78c-.057-.033-.054-.089.008-.125l.416-.24a.239.239,0,0,1,.215,0l1.351.78c.057.033.054.089-.008.125Zm9.714,6.27a.239.239,0,0,1-.215,0l-1.351-.78c-.057-.033-.054-.089.008-.124l1.562-.9a.238.238,0,0,1,.216,0l1.351.78c.057.033.054.089-.008.125Zm-3.948-2.28a.238.238,0,0,1-.215,0l-1.351-.78c-.057-.033-.054-.089.008-.125l1.562-.9a.238.238,0,0,1,.215,0l1.351.78c.057.033.054.089-.008.124Zm6.359,3.672a.238.238,0,0,1-.216,0l-1.351-.78c-.057-.033-.054-.089.008-.124l1.562-.9a.239.239,0,0,1,.215,0l1.351.78c.058.033.054.089-.008.125Zm-4.385-2.532a.24.24,0,0,1-.215,0l-1.351-.78c-.057-.033-.054-.089.008-.124l1.562-.9a.238.238,0,0,1,.215,0l1.351.78c.057.033.054.089-.008.125Zm8.333,4.811a.238.238,0,0,1-.215,0l-1.351-.78c-.057-.033-.054-.089.008-.125l1.562-.9a.238.238,0,0,1,.216,0l1.351.78c.057.033.054.089-.008.125Zm-1.974-1.14a.238.238,0,0,1-.215,0l-1.351-.78c-.057-.033-.054-.089.008-.124l1.562-.9a.238.238,0,0,1,.216,0l1.351.78c.057.033.054.089-.008.125Zm-10.15-6.522a.238.238,0,0,1-.216,0l-1.351-.78c-.057-.033-.054-.089.008-.124l.416-.24a.238.238,0,0,1,.215,0l1.351.78c.058.033.054.089-.008.124Zm-5.923-3.419a.238.238,0,0,1-.215,0l-1.351-.78c-.057-.033-.054-.089.008-.125l.416-.24a.238.238,0,0,1,.215,0l1.351.78c.057.033.054.089-.008.124Zm-3.281,1.894a.24.24,0,0,1-.215,0l-1.351-.78c-.057-.033-.054-.089.008-.124l1.562-.9a.238.238,0,0,1,.215,0l1.351.78c.057.033.054.089-.008.125Zm-4.935,5.009-1.351-.78c-.058-.033-.054-.089.008-.124l1.562-.9a.238.238,0,0,1,.215,0l1.351.78c.057.033.054.089-.008.124l-1.562.9A.24.24,0,0,1,121.595,248.146Zm12.165-4.624a.238.238,0,0,1-.215,0l-1.351-.78c-.057-.033-.054-.089.008-.124l.416-.24a.238.238,0,0,1,.216,0l1.351.78c.057.033.054.089-.008.125Zm16.073,9.941a.239.239,0,0,1-.215,0l-1.351-.78c-.057-.033-.054-.089.008-.124l1.562-.9a.238.238,0,0,1,.215,0l1.351.78c.057.033.054.089-.008.124Z" transform="translate(-98.588 -188.649)"/><path class="h" d="M249,310.29l-13.33-7.7a1.607,1.607,0,0,0-1.455,0l-7.644,4.413a.443.443,0,0,0,0,.84l13.33,7.7a1.607,1.607,0,0,0,1.455,0L249,311.13A.443.443,0,0,0,249,310.29Z" transform="translate(-206.508 -233.626)"/><g transform="translate(39.573 8.57)"><path class="d" d="M86.507,86.52v2.035l30.342,17.517c.209.121.38.023.38-.22l-.023-.729a3.577,3.577,0,0,1,.559-.172l9.085,5.246a.84.84,0,0,1,.382.659v.771a.843.843,0,0,0,.38.659l1.048.605v-2.035a.843.843,0,0,0-.38-.659L86.887,86.3C86.678,86.179,86.507,86.277,86.507,86.52Z" transform="translate(-86.505 -86.248)"/><g transform="translate(0 2.307)"><path class="k" d="M86.507,122.987a.841.841,0,0,0,.382.66l41.394,23.9c.21.121.38.023.38-.22V118.866l-1.048-.605c-.209-.121-.551-1.968-.762-2.089l-9.085-5.246c-.211-.121-.707,1.242-.916,1.121L86.509,94.529v2.477Z" transform="translate(-86.507 -94.529)"/></g><g transform="translate(21.785 23.885)"><path class="j" d="M110.2,182.54l-18.18-10.507c-.21-.121-.381-.023-.381.22v17.869a.842.842,0,0,0,.381.66l18.18,10.506c.211.121.381.023.381-.22V183.2A.841.841,0,0,0,110.2,182.54Z" transform="translate(-91.635 -171.982)"/></g><g transform="translate(1.428 7.423)"><path class="i" d="M130.553,135.194l-38.537-22.25c-.21-.121-.381-.023-.381.22v2.677a.841.841,0,0,0,.381.659l38.537,22.25c.21.121.381.023.381-.22v-2.676A.842.842,0,0,0,130.553,135.194Z" transform="translate(-91.635 -112.892)"/><g transform="translate(1.429 2.615)"><path class="j" d="M192.831,131.742v.71c0,.145-.1.2-.229.132l-11.2-6.468v-1.238l11.2,6.468A.507.507,0,0,1,192.831,131.742Z" transform="translate(-179.97 -124.154)"/><path class="d" d="M222.662,122.309c-.126-.073-.228-.014-.228.132v.71a.5.5,0,0,0,.228.4l1.2.693V123Z" transform="translate(-222.434 -122.278)"/><path class="j" d="M223.957,124.529l.134-.042a.729.729,0,0,1-.021-.173.315.315,0,0,1,.122-.286.189.189,0,0,1,.2.009.684.684,0,0,1,.268.557.316.316,0,0,1-.122.286.168.168,0,0,1-.085.023.221.221,0,0,1-.11-.032.562.562,0,0,1-.216-.289l-.134.042-.015,0a.05.05,0,0,1-.015-.1Zm.43.257a.093.093,0,0,0,.1.009.231.231,0,0,0,.072-.2.6.6,0,0,0-.218-.471.125.125,0,0,0-.06-.019.069.069,0,0,0-.036.009.232.232,0,0,0-.072.2A.6.6,0,0,0,224.387,124.786Z" transform="translate(-223.64 -123.524)"/></g></g><path class="c" d="M86.507,94.529v2.477l42.154,24.337v-2.477l-.783-.453c-.209-.121-.28-.306-.38-.66l-.266-.922a.951.951,0,0,0-.382-.659l-9.085-5.246c-.211-.121-.376-.135-.536.131l-.326.591c-.12.206-.179.328-.389.206Z" transform="translate(-86.505 -92.222)"/><g transform="translate(1.308 1.483)"><path class="i" d="M230.164,91.636c-.265-.153-.479-.029-.479.277a1.06,1.06,0,0,0,.479.83c.265.153.479.029.479-.277A1.06,1.06,0,0,0,230.164,91.636Z" transform="translate(-229.685 -91.57)"/><path class="i" d="M223.971,95.206c-.265-.153-.479-.029-.479.277a1.059,1.059,0,0,0,.479.83c.265.153.479.029.479-.277A1.059,1.059,0,0,0,223.971,95.206Z" transform="translate(-221.767 -94.146)"/><path class="i" d="M217.778,98.777c-.265-.153-.479-.029-.479.277a1.06,1.06,0,0,0,.479.83c.265.153.479.029.479-.277A1.06,1.06,0,0,0,217.778,98.777Z" transform="translate(-213.848 -96.722)"/></g><path class="l" d="M90.047,181.982l.6.345-.228-.438a.11.11,0,0,1,0-.107c.018-.021.048-.006.068.032l.324.624v0a.136.136,0,0,1,.009.023s0,.005,0,.008a.145.145,0,0,1,0,.032.087.087,0,0,1,0,.027.026.026,0,0,1,0,0,.036.036,0,0,1-.009.013h0l-.324.249a.027.027,0,0,1-.032,0,.1.1,0,0,1-.036-.046c-.018-.041-.015-.087,0-.1l.228-.175-.6-.345a.127.127,0,0,1-.048-.1C90,181.987,90.02,181.966,90.047,181.982Z" transform="translate(-49.639 -155.159)"/><path class="l" d="M95.171,179.746l-.6-.345.228-.175c.02-.016.022-.061,0-.1s-.048-.062-.068-.046l-.324.249h0a.039.039,0,0,0-.009.013l0,0a.086.086,0,0,0,0,.027.143.143,0,0,0,0,.032l0,.008a.154.154,0,0,0,.009.023v0l.324.624a.088.088,0,0,0,.032.036.026.026,0,0,0,.036,0,.109.109,0,0,0,0-.107l-.228-.439.6.345c.027.015.048-.005.048-.046A.127.127,0,0,0,95.171,179.746Z" transform="translate(-55.262 -153.212)"/><path class="l" d="M99.251,175.247c0-.036.035-.031.051.008l.082.2c.14-.015.309.121.423.363a.808.808,0,0,1,0,.827.211.211,0,0,1-.269.016.73.73,0,0,1-.268-.326.1.1,0,0,1,0-.1c.019-.018.049,0,.068.039.111.234.29.338.4.232a.6.6,0,0,0,0-.617c-.079-.167-.192-.265-.291-.271l.062.151c.016.039,0,.076-.024.059l-.244-.159a.079.079,0,0,1-.027-.067Z" transform="translate(-61.303 -150.435)"/><path class="l" d="M123.391,155.848l-.218-.461a.141.141,0,0,1,0-.144c.026-.025.068,0,.093.054l.218.461.218-.21c.026-.025.067,0,.093.054a.14.14,0,0,1,0,.144l-.218.21.218.461a.14.14,0,0,1,0,.144.037.037,0,0,1-.047,0,.126.126,0,0,1-.047-.057l-.218-.461-.218.21a.036.036,0,0,1-.047,0,.129.129,0,0,1-.047-.057.141.141,0,0,1,0-.143Z" transform="translate(-91.869 -136.014)"/><path class="j" d="M139.467,122.333v-.771a.841.841,0,0,0-.381-.659L104.838,101.14c-.21-.121-.381-.023-.381.22v.771a.843.843,0,0,0,.381.66l34.248,19.763C139.3,122.675,139.467,122.576,139.467,122.333Z" transform="translate(-102.313 -96.954)"/><path class="m" d="M226.661,102.7l-.1.212a.024.024,0,0,1-.033.013l-.224-.086c-.035-.014-.05.036-.024.085l.162.3a.1.1,0,0,1,.013.059l-.038.275c-.006.043.031.1.063.1l.2-.025a.049.049,0,0,1,.04.023l.2.256c.032.041.069.026.063-.025l-.038-.319a.046.046,0,0,1,.012-.044l.162-.117c.026-.018.012-.085-.024-.112l-.224-.172a.105.105,0,0,1-.033-.05l-.1-.328C226.723,102.691,226.677,102.664,226.661,102.7Z" transform="translate(-223.914 -98.104)"/><g class="n" transform="translate(0.492 3.21)"><g transform="translate(0)"><path class="i" d="M232.464,98.652a.132.132,0,0,0,.066-.246l-1.072-.619a.132.132,0,1,0-.132.228l1.072.619A.132.132,0,0,0,232.464,98.652Z" transform="translate(-231.26 -97.769)"/></g><g transform="translate(0 0.619)"><path class="i" d="M232.464,100.874a.132.132,0,0,0,.066-.246l-1.072-.619a.132.132,0,1,0-.132.228l1.072.619A.131.131,0,0,0,232.464,100.874Z" transform="translate(-231.26 -99.991)"/></g><g transform="translate(0 1.238)"><path class="i" d="M232.464,103.1a.132.132,0,0,0,.066-.246l-1.072-.619a.132.132,0,0,0-.132.228l1.072.619A.132.132,0,0,0,232.464,103.1Z" transform="translate(-231.26 -102.212)"/></g></g></g><g transform="translate(67.552 40.577)"><path class="i" d="M118.356,207.778c-1.529-1.557-1.923-2.264-1.923-2.889,0-.585.263-1.017,1.077-.547a2.583,2.583,0,0,1,1.2,1.476.924.924,0,0,0,.6.552l1.061.237c.254.057.423-.105.361-.358a7.32,7.32,0,0,0-3.285-4.6c-1.979-1.143-3.132-.288-3.132,1.649a7.032,7.032,0,0,0,1.94,4.51,1.449,1.449,0,0,1,.315.82v.629a.9.9,0,0,0,.407.706l1.3.752c.225.13.408.025.408-.235v-1.9A1.319,1.319,0,0,0,118.356,207.778Z" transform="translate(-114.315 -201.135)"/><path class="i" d="M123.751,239.445a2.223,2.223,0,0,0-1.077-1.925c-.7-.4-1.065-.047-1.065.688a2.226,2.226,0,0,0,1.065,1.934C123.388,240.555,123.751,240.18,123.751,239.445Z" transform="translate(-119.354 -227.261)"/></g></g></g><g transform="translate(47.384 1.681)"><g transform="translate(0)"><g transform="translate(10.925)"><path class="d" d="M176.224,62.18l1.034-.6h0a.608.608,0,0,1,.623.057l25.454,14.695a1.93,1.93,0,0,1,.874,1.511v36.611a.62.62,0,0,1-.245.556v0l-.011.006h0l-1.03.6-25.04-15.351a1.93,1.93,0,0,1-.873-1.512Z" transform="translate(-175.974 -61.522)"/><path class="o" d="M176.27,155.536l1.015-.588h0l.01-.008v0a.616.616,0,0,0,.243-.555V117.772a1.826,1.826,0,0,0-.284-.906l-1.033.6a1.8,1.8,0,0,1,.284.909v36.611A.626.626,0,0,1,176.27,155.536Z" transform="translate(-149.307 -101.447)"/><path class="d" d="M206.261,78.478,180.807,63.783c-.482-.278-.873-.053-.873.5V100.9a1.93,1.93,0,0,0,.873,1.512L206.261,117.1c.482.279.875.053.875-.5V79.99A1.931,1.931,0,0,0,206.261,78.478Z" transform="translate(-179.934 -63.067)"/><path class="p" d="M178.241,61.582l-1,.578a.632.632,0,0,1,.585.079l25.454,14.694a1.737,1.737,0,0,1,.588.6l1.033-.6a1.743,1.743,0,0,0-.588-.606L178.862,61.64a.6.6,0,0,0-.621-.056Z" transform="translate(-176.953 -61.522)"/></g><path class="f" d="M212.11,91.306l-20.386-11.77c-.365-.211-.661-.04-.661.382v31.311a1.46,1.46,0,0,0,.662,1.145l20.386,11.749c.365.21.661.039.661-.383V92.451A1.462,1.462,0,0,0,212.11,91.306Z" transform="translate(-177.745 -74.452)"/><g transform="translate(16.83 22.827)"><path class="g" d="M247.569,144.375l-.205-.169a2.539,2.539,0,0,1,1.27-.748l.066.257A2.319,2.319,0,0,0,247.569,144.375Z" transform="translate(-246.189 -143.458)"/><path class="d" d="M251.887,147l.419-.412a.545.545,0,0,0,.006-.771h0a.545.545,0,0,0-.771-.006l-.419.412a.545.545,0,0,0-.006.771h0A.545.545,0,0,0,251.887,147Z" transform="translate(-250.96 -145.039)"/></g><g transform="translate(13.317 4.994)"><g class="q" transform="translate(0)"><g transform="translate(-11.861 7.653)"><g transform="translate(0 0.058)"><path class="r" d="M268.431,168.816c-.549.936-.942,1.609-.942,1.609s-6.168-3.27-6.515-3.7a3.7,3.7,0,0,1-.378-1.764,5.075,5.075,0,0,1,.24-1.733c.071-.492-.634-.518-.983.163-.255.5-.275,1.065-.494,1.073a6.3,6.3,0,0,1-.866-.739c-.382-.418-1.073-1.118-1.6-1.021a.456.456,0,0,0-.349.376,2.418,2.418,0,0,1-.2.834,1.347,1.347,0,0,0-.206.335,2.932,2.932,0,0,0,.006.541c-.022.258-.272.367-.308.619a4.826,4.826,0,0,0,.065.585c0,.124-.04.233-.04.357a1.184,1.184,0,0,0,.318.686,7.294,7.294,0,0,0,1.831,1.533c.563.367,1.3.694,1.94,1.039s7.906,5.923,8.873,5.264a21.645,21.645,0,0,0,2.532-3.094" transform="translate(-255.839 -147.214)"/><path class="r" d="M245.566,169.9a50.1,50.1,0,0,0,3.048-4.824,6.356,6.356,0,0,0-.147-5.2s-1.6-.5-2.937,1.61c-.588.927-2.125,3.535-3.135,5.257" transform="translate(-229.803 -145.146)"/><g transform="translate(12.754 14.134)"><path class="i" d="M243.192,158.5a8.659,8.659,0,0,0-2.911-.643,3.177,3.177,0,0,0-2.834,1.751c-1.122,1.8-2.978,4.918-2.978,4.918a8.975,8.975,0,0,0,3.607,3.859l3.421-5.161Z" transform="translate(-234.468 -157.856)"/></g><g transform="translate(16.361)"><g transform="translate(0)"><path class="s" d="M218.96,162.358a3.8,3.8,0,0,1,1.249,1.837,9,9,0,0,1,.38,2.69v5.866l.074,11.1c-3.722,1.268-8.453.152-12.423-4.26,0,0,.222-14.2.222-16.531q0-.158.007-.318c.144-3.293,2.985-4.817,5.782-3.237l2.35,1.328,2.359,1.53Z" transform="translate(-208.24 -144.456)"/><g transform="translate(0.088)"><g transform="translate(0)"><path class="h" d="M210.9,122.909a2.141,2.141,0,0,1,2.24,1.552c.371,1.509-2.382,7.473-2.321,7.373S210.9,122.909,210.9,122.909Z" transform="translate(-201.553 -118.509)"/><path class="d" d="M219.649,108.113s.677-1.82,3.962-.525a4.61,4.61,0,0,1,2.3,2.729Z" transform="translate(-216.754 -107.123)"/><path class="t" d="M219.649,108.113s.677-1.82,3.962-.525a4.61,4.61,0,0,1,2.3,2.729Z" transform="translate(-216.754 -107.123)"/><path class="h" d="M231.345,116.814c0,2.5-1.757,4.06-3.924,3.479a5.926,5.926,0,0,1-3.923-5.582c0-2.5,1.871-2.5,4.038-1.923S231.345,114.312,231.345,116.814Z" transform="translate(-223.26 -110.982)"/><path class="h" d="M217.667,142.269a33.77,33.77,0,0,1-.81,3.434.887.887,0,0,1-.711.471l.04-2.2Z" transform="translate(-207.534 -132.477)"/><path class="h" d="M214.258,125.445a1.615,1.615,0,0,1,1.108.747c.476.689.21,2.377-.382,3.94l-1.089-.147Z" transform="translate(-204.851 -120.34)"/><path class="r" d="M219.974,121.173c.218.209.53-.192.8-.445s1.148-.462,1.587.722a1.883,1.883,0,0,1-1.079,2.485,1.146,1.146,0,0,1-1.372-.819l-.04,5.091c-2,2.122-5.507-.379-3.931-1.319l0-1.511a6.878,6.878,0,0,1-1.608-.335,3.4,3.4,0,0,1-1.695-2.506,17.561,17.561,0,0,1-.227-6.706c.4-3.689,4.221-2.7,6.285-.651S219.974,121.173,219.974,121.173Z" transform="translate(-211.256 -111.615)"/><path class="h" d="M226.563,117.7c.11.032.527-.656.8-.869.377-.295-.109-4.008-.109-4.008.436-.956-.367-2.4-1.207-2.991a4.873,4.873,0,0,0-1.99-.731q-.9-.167-1.8-.25a16.542,16.542,0,0,1-2.181-.26,7.753,7.753,0,0,1-1.627-.591c-.457-.21-.836.261-.431,1.045a5.92,5.92,0,0,0,1.476,1.855,11.013,11.013,0,0,0,5.64,1.852c.405.045.491.521.71,1.818C226.035,115.712,226.194,117.6,226.563,117.7Z" transform="translate(-217.845 -107.723)"/><path class="h" d="M209.179,122.6l1.32-.465a.881.881,0,0,0-1-.649A.822.822,0,0,0,209.179,122.6Z" transform="translate(-198.403 -117.46)"/><path class="u" d="M222.822,153.947a11.674,11.674,0,0,0,2.642-.168,1.676,1.676,0,0,0,.946-.827,2.9,2.9,0,0,1-.537,1.131c-.5.6-3.051.466-3.051.466Z" transform="translate(-218.137 -140.184)"/></g><g transform="translate(1.463 4.774)"><path class="h" d="M231.2,135a.6.6,0,0,0,.392.574c.217.057.392-.107.392-.367a.6.6,0,0,0-.392-.574C231.373,134.571,231.2,134.735,231.2,135Z" transform="translate(-227.505 -131.731)"/><path class="h" d="M228.537,129.318l.839.76a.74.74,0,0,0-.2-.824A.387.387,0,0,0,228.537,129.318Z" transform="translate(-224.215 -127.761)"/><path class="u" d="M235.861,146.926l-.9.148a.617.617,0,0,0,.608.506C235.821,147.539,235.95,147.246,235.861,146.926Z" transform="translate(-232.462 -140.611)"/><path class="h" d="M244.278,125.082l.765-.476c-.156-.295-.454-.427-.665-.3A.591.591,0,0,0,244.278,125.082Z" transform="translate(-244.185 -124.259)"/><path class="h" d="M242.909,131.394a.6.6,0,0,0,.393.575c.216.057.392-.107.392-.367a.6.6,0,0,0-.392-.574C243.085,130.97,242.909,131.134,242.909,131.394Z" transform="translate(-242.48 -129.134)"/><path class="u" d="M240.218,132.933l-.046,2.735-1.406-.734Z" transform="translate(-237.85 -130.516)"/></g></g></g></g><g transform="translate(26.564 18.097)"><path class="r" d="M199.254,188.5c-1.1-11.283-2.871-15.293-5.654-16.416-.934.732-1.082,4.06-.026,6.559,0,0,2.322,7.483,2.505,10.041a41.144,41.144,0,0,1-.264,7.137,1.01,1.01,0,0,1-.415.718c-.594.406-.541.975-.958,1.524-.327.43-.64.511-.571.668a.75.75,0,0,0,.85.429,2.277,2.277,0,0,0,.729-.417,6.123,6.123,0,0,1-.736,1.7c-.754,1.216-.7,2.021,1.148,2.248,1.156.142,1.977-.593,2.486-3.493.147-.836.5-2.341.64-3.423A33.269,33.269,0,0,0,199.254,188.5Z" transform="translate(-192.839 -172.079)"/></g><path class="i" d="M195.413,170.156a6.462,6.462,0,0,1,3.076,2.27c1.053,1.618,2.084,4.238,2.876,8.913,0,0-1.227,1.766-4.573.4a74.3,74.3,0,0,1-1.772-8.315C194.816,170.852,195.413,170.156,195.413,170.156Z" transform="translate(-168.884 -152.595)"/></g><g transform="translate(19.344)"><path class="d" d="M214.679,108.046a5.1,5.1,0,0,1,2.754,4.356,33.136,33.136,0,0,1-.141,3.564A2.921,2.921,0,0,1,218.5,118.2a1.573,1.573,0,0,1-2.122,1.553,2.969,2.969,0,0,1-2.122-2.691,1.527,1.527,0,0,1,1.29-1.607,17.367,17.367,0,0,0-.016-4.99c-.42-2.508-5.107-3.954-6.155-2.506C209.683,106.712,212.048,106.4,214.679,108.046Z" transform="translate(-209.375 -106.915)"/><path class="o" d="M214.679,108.046a5.1,5.1,0,0,1,2.754,4.356,33.136,33.136,0,0,1-.141,3.564A2.921,2.921,0,0,1,218.5,118.2a1.573,1.573,0,0,1-2.122,1.553,2.969,2.969,0,0,1-2.122-2.691,1.527,1.527,0,0,1,1.29-1.607,17.367,17.367,0,0,0-.016-4.99c-.42-2.508-5.107-3.954-6.155-2.506C209.683,106.712,212.048,106.4,214.679,108.046Z" transform="translate(-209.375 -106.915)"/><path class="d" d="M213.341,142.393a.754.754,0,0,1,1.017-.744,1.423,1.423,0,0,1,1.017,1.29.754.754,0,0,1-1.017.745A1.423,1.423,0,0,1,213.341,142.393Z" transform="translate(-207.356 -131.946)"/></g></g></g></g><g transform="translate(38.126 35.506)"><path class="d" d="M158.294,207.106a1.133,1.133,0,0,1,.125.145.01.01,0,0,0,0,.006.814.814,0,0,1,.147.267s0,0,0,0a.291.291,0,0,1,.008.181.2.2,0,0,1-.059.109.268.268,0,0,1-.05.045l1.022-.591a.254.254,0,0,0,.1-.1.318.318,0,0,0,.014-.245s0,0,0,0a.785.785,0,0,0-.095-.2,1.678,1.678,0,0,0-.178-.223Z" transform="translate(-153.591 -201.62)"/><path class="d" d="M166.693,195.995c.534.554.346.932-.418.844L162,196.345v-5.227Z" transform="translate(-161.999 -190.519)"/><path class="d" d="M162.986,194.442c.337.351.384.63.184.766l1.022-.591c.214-.134.167-.418-.173-.775l-4.694-4.875-1.034.6Z" transform="translate(-158.292 -188.967)"/><path class="o" d="M158.294,207.106a1.133,1.133,0,0,1,.125.145.01.01,0,0,0,0,.006.919.919,0,0,1,.147.267s0,0,0,0a.34.34,0,0,1,.008.181.208.208,0,0,1-.059.109.268.268,0,0,1-.05.045l1.022-.591a.254.254,0,0,0,.1-.1.318.318,0,0,0,.014-.245s0,0,0,0a.9.9,0,0,0-.095-.2,1.678,1.678,0,0,0-.178-.223Z" transform="translate(-153.591 -201.62)"/><path class="p" d="M159.337,189.566l4.694,4.875s.008.008.008.011l1.036-.6-.011-.011-4.694-4.875Z" transform="translate(-159.337 -188.967)"/></g><path class="r" d="M269.027,167.14c-.549.936-.942,1.609-.942,1.609s-6.168-3.27-6.515-3.7a3.7,3.7,0,0,1-.378-1.764,5.076,5.076,0,0,1,.24-1.733c.086-.6-.776-.46-1.049-.223a2.547,2.547,0,0,0-.442.642c-.135.224-.385.95-.642,1-.2.036-.6-.25-.762-.372a9.837,9.837,0,0,1-1.617-1.872.928.928,0,0,0-.374-.323.9.9,0,0,0-.758.2,1.767,1.767,0,0,0-.553.495,1.551,1.551,0,0,0-.189.5,3.607,3.607,0,0,0,1.044,3.072,10.733,10.733,0,0,0,2.523,2.233c.563.367,1.3.694,1.94,1.039s7.573,6.149,8.54,5.489a17.006,17.006,0,0,0,3.1-3.128" transform="translate(-254.98 -132.834)"/></g></g><g transform="translate(8.104 11.692)"><path class="r" d="M437.51,148.534c-2.216,0-3.4.668-4.324,2.726-.886,1.969-3.635,7.683-3.5,9.069s5.795,7.266,5.795,7.266l1.614-1.96-3.5-5.88,3.434-4.954Z" transform="translate(-429.683 -134.303)"/><g transform="translate(1.07)"><g transform="translate(0)"><g transform="translate(2.634 30.056)"><g transform="translate(8.985 44.805)"><path class="h" d="M375.716,366.16s-.251.762-.387,1.428a3.86,3.86,0,0,0-.076,1.813c.186.4.909.656,2.03.647a6.581,6.581,0,0,1,2.633.92,6.958,6.958,0,0,0,3.311.525,3.153,3.153,0,0,0,2.193-1.109c.161-.413.3-.979-2.4-1.844-.022-.007-3.268-1.065-4.406-2.32Z" transform="translate(-375.167 -366.16)"/></g><path class="r" d="M381.813,366.262l.515-.064,2.378.049c1.138,1.255,4.384,2.313,4.406,2.32.154.049.3.1.432.144.468.378.072,1.023-1.044,1.122s-4.587-1.07-5.355-1.44A2.3,2.3,0,0,1,381.813,366.262Z" transform="translate(-372.278 -321.383)"/><g transform="translate(9.534 43.858)"><path class="r" d="M399.869,362.762s0,.65,0,1.021.435.925,1.571.884c.8-.028,1.354-.243,1.323-.9v-.947Z" transform="translate(-399.869 -362.762)"/></g><g transform="translate(1.643 36.696)"><path class="h" d="M416.854,340.892c-.2.084-.246.479-.256,1.261-.008.593-.106,1.629.592,1.816a2.169,2.169,0,0,0,2.14-.515c.536-.711.894-1.334,1.662-2.2a6,6,0,0,0,1.64-2.5c.225-.941.006-1.34-.639-1.594-.611-.241-1.226-.045-2.118.7a4.141,4.141,0,0,1-.793.42C418.5,338.451,417.058,340.808,416.854,340.892Z" transform="translate(-416.588 -337.054)"/></g><g transform="translate(1.889 38.818)"><path class="r" d="M428.181,345.664l.026.96s.643,1.257,2.428,0c.04-.094.2-1.951.2-1.951Z" transform="translate(-428.181 -344.673)"/></g><path class="r" d="M421.482,340.132a4.141,4.141,0,0,0,.793-.42h0c.72-.23,2.236.036,1.553,1.082a8.119,8.119,0,0,1-2.14,2.2c-.808.4-1.09-.1-1.09-.1l.286-2.252A1.757,1.757,0,0,1,421.482,340.132Z" transform="translate(-417.345 -302.22)"/><g transform="translate(0)"><path class="d" d="M392.407,231.863a22.741,22.741,0,0,1,1.039-4.97s-.6-4.239-1.08-8.306c-1.117-9.546-.372-9.7.977-13.019,0,0,12.238-1.574,12.75,3.516.637,6.339.35,18.629.242,20.877a77.584,77.584,0,0,1-.957,7.975c-.508,3.584-.989,11.42-.989,11.42a3.091,3.091,0,0,1-3.149-.16s-1.534-9.638-1.5-12.23a22.124,22.124,0,0,1,.83-5.677s-1.04-10.33-1.306-11.972c0,0-.295,3.294-.4,5.542s-.717,4.409-1.253,8.594c-.466,3.63-1.24,11.21-1.24,11.21a3.4,3.4,0,0,1-2.725.5S392.052,235.012,392.407,231.863Z" transform="translate(-391.822 -205.338)"/></g></g><g transform="translate(7.31 11.385)"><g transform="translate(0)"><path class="r" d="M415.715,139.1l-.449,4.758-4.179-.264.334-5.276Z" transform="translate(-411.087 -138.32)"/></g></g><g transform="translate(2.896 14.231)"><g transform="translate(0)"><path class="i" d="M392.829,150.552c.425-1.26,1.291-2,3.2-2.018l.705.022c.134.7,2.192,1.27,4.227.552.287.074,1.073.22,1.516.278l.973.142c1.481.484,2.135,3.057,2.278,7.133s.752,12.8.752,12.8a14.562,14.562,0,0,1-8.211,1.046,10,10,0,0,1-6.093-2.911,31.048,31.048,0,0,1,2.323-6.534C392.133,155.242,392.2,152.421,392.829,150.552Z" transform="translate(-392.17 -148.534)"/></g></g><path class="g" d="M421.28,185.516a17.494,17.494,0,0,1-2.491-.15,9.755,9.755,0,0,1-6.088-2.934,31.144,31.144,0,0,1,2.318-6.511,26.757,26.757,0,0,1-1.967-6.788c.2,1.22,2,5.945,4.358,7.362a4.2,4.2,0,0,0-2.47,1.771C413.8,179.828,414.735,185.181,421.28,185.516Z" transform="translate(-409.791 -149.164)"/><path class="r" d="M327.116,151.594c1.963.247,3.655.6,4.371,2.527a21.372,21.372,0,0,0,4.265,7.108c1.221,1.308,6.229,3.809,7.357,3.626s2.146-1.793,2.727-1.458-.691,1.481-.622,1.764,2.1-.306,3.072-.989,1.533,1.278.283,2.744-3.6,1.579-6.15,1.067-7.218-2.023-9.07-3.753a16.107,16.107,0,0,1-3.925-5.458C326.056,156.16,327.116,151.594,327.116,151.594Z" transform="translate(-313.91 -136.511)"/><g transform="translate(3.261 0.192)"><path class="h" d="M411.18,104.211s1.579-1.882.341-3.715c-1.459-2.16-4.03-2.891-7.2-1.948a6.429,6.429,0,0,0-4,5.686c-.09,2.349,6.5,3.9,6.39,5.512Z" transform="translate(-400.318 -98.145)"/></g><g transform="translate(15.038 6.947)"><path class="u" d="M397.031,122.392s.926,1.4.8,1.547a2.214,2.214,0,0,1-.709.306Z" transform="translate(-397.031 -122.392)"/></g><g transform="translate(6.019 2.146)"><path class="r" d="M405.632,105.525c.9.465,2.454,1.324,2.854,4.638.41,3.4-.347,4.584-.811,5.03a4.387,4.387,0,0,1-2.771.148,8.767,8.767,0,0,1-4.41-3.212c-1.26-2.066-1.52-4.819-.066-5.9A5.433,5.433,0,0,1,405.632,105.525Z" transform="translate(-399.441 -105.156)"/></g><g transform="translate(3.261 1.429)"><path class="h" d="M417.271,103.811s.784,3.1-.155,5.065c0,0-.55-1.211-1.591-.864s-.952,1.747-.127,2.461a1.56,1.56,0,0,0,1.625.345,2.83,2.83,0,0,1-1.5,2.4,5.119,5.119,0,0,1-5.843-1.5c-2.516-2.69-2.191-7.509,1.517-8.744A6.372,6.372,0,0,1,417.271,103.811Z" transform="translate(-408.056 -102.583)"/></g><path class="h" d="M438.006,127.7h0a4.439,4.439,0,0,0,4.439-4.439v-5.705h0a4.439,4.439,0,0,0-4.439,4.439Z" transform="translate(-438.006 -111.956)"/><path class="h" d="M402.669,98.716a4.034,4.034,0,0,1-2.543,6.46l-2.619-7.184A4.424,4.424,0,0,1,402.669,98.716Z" transform="translate(-387.805 -97.455)"/><path class="h" d="M406.927,125.183a.792.792,0,0,0-.538-1.489Z" transform="translate(-394.203 -116.35)"/></g><path class="v" d="M422.22,241.078l-.666-4.26a9.367,9.367,0,0,1-3.782-1.316,5.082,5.082,0,0,0,3.035,1.779l.68,4.935.274,5.168Z" transform="translate(-412.144 -197.042)"/></g></g></svg>