<svg xmlns="http://www.w3.org/2000/svg" enable-background="new 0 0 64 64" viewBox="0 0 64 64"><polygon fill="#ff8088" points="32 49 38 42 35 42 35 34 29 34 29 42 26 42"/><path fill="#ffdbac" d="M14,44c0,2.758-2.242,5-5,5s-5-2.242-5-5c0-0.083,0-0.167,0.008-0.25C4.142,41.108,6.325,39,9,39
	s4.858,2.108,4.992,4.75C14,43.833,14,43.917,14,44z"/><path fill="#adc4e6" d="M16,62H2v-9c0-2.209,1.791-4,4-4h6c2.209,0,4,1.791,4,4V62z"/><path fill="#526273" d="M13.976,43.752c-0.124-1.922-1.422-3.757-3.239-4.431c-3.407-1.265-7.102,1.647-6.678,5.249
	c1.116-1.575,3.022-2.558,4.953-2.555s3.833,0.994,4.943,2.573C13.987,44.309,13.994,44.03,13.976,43.752z"/><path fill="#ffdbac" d="M60,44c0,2.758-2.242,5-5,5s-5-2.242-5-5c0-0.083,0-0.167,0.008-0.25C50.142,41.108,52.325,39,55,39
	s4.858,2.108,4.992,4.75C60,43.833,60,43.917,60,44z"/><path fill="#759acc" d="M62,62H48v-9c0-2.209,1.791-4,4-4h6c2.209,0,4,1.791,4,4V62z"/><path fill="#526273" d="M59.976,43.752c-0.124-1.922-1.422-3.757-3.239-4.431c-3.407-1.265-7.102,1.647-6.678,5.249
	c1.116-1.575,3.022-2.558,4.953-2.555c1.93,0.004,3.833,0.994,4.943,2.573C59.987,44.309,59.994,44.03,59.976,43.752z"/><path fill="#ffdbac" d="M37,12c0,2.758-2.242,5-5,5s-5-2.242-5-5c0-0.083,0-0.167,0.008-0.25C27.142,9.108,29.325,7,32,7
	s4.858,2.108,4.992,4.75C37,11.833,37,11.917,37,12z"/><path fill="#cfcfcf" d="M39,30H25v-9c0-2.209,1.791-4,4-4h6c2.209,0,4,1.791,4,4V30z"/><path fill="#526273" d="M36.976,11.752c-0.124-1.922-1.422-3.757-3.239-4.431c-3.407-1.265-7.102,1.647-6.678,5.249
	c1.116-1.575,3.022-2.558,4.953-2.555c1.93,0.004,3.833,0.994,4.943,2.573C36.987,12.309,36.994,12.03,36.976,11.752z"/><path d="M58.726 32.312l-1.019-1.019c-.228-.228-.551-.334-.867-.28-.317.052-.59.253-.734.54l-2 4 1.789.895 1.379-2.759 1.019 1.019c.227.228.55.33.867.28.317-.052.59-.253.734-.54l2-4-1.789-.895L58.726 32.312zM7.16 31.013c-.315-.051-.64.053-.867.28l-1.019 1.019-1.379-2.759-1.789.895 2 4c.144.287.417.488.734.54.318.053.64-.052.867-.28l1.019-1.019 1.379 2.759 1.789-.895-2-4C7.75 31.266 7.478 31.064 7.16 31.013z"/><rect width="2" height="3" x="31" y="1"/><rect width="3" height="2" x="40" y="11"/><rect width="3" height="2" x="21" y="11"/><rect width="2" height="3" x="24.283" y="3.782" transform="rotate(-45.009 25.282 5.283)"/><rect width="3" height="2" x="37.218" y="4.282" transform="rotate(-45.001 38.718 5.283)"/><path d="M35 33h-6c-.552 0-1 .447-1 1v7h-2c-.391 0-.745.228-.909.582-.163.354-.104.772.149 1.068l6 7C31.431 49.872 31.708 50 32 50s.569-.128.759-.35l6-7c.254-.296.312-.714.149-1.068C38.745 41.228 38.391 41 38 41h-2v-7C36 33.447 35.552 33 35 33zM32 47.464L28.174 43H29c.552 0 1-.447 1-1v-7h4v7c0 .553.448 1 1 1h.826L32 47.464zM20 58h4c.265 0 .52-.105.707-.293l1.185-1.185L28.2 59.6c.207.278.541.427.89.396.345-.031.649-.239.805-.549L32 55.236l2.105 4.211c.155.31.459.518.805.549C34.94 59.999 34.97 60 35 60c.313 0 .61-.146.8-.4l2.309-3.077 1.185 1.185C39.48 57.895 39.735 58 40 58h4v-2h-3.586l-1.707-1.707c-.205-.205-.493-.313-.778-.29-.289.021-.555.165-.729.397l-2.029 2.705-2.276-4.553c-.339-.678-1.45-.678-1.789 0l-2.276 4.553L26.8 54.4c-.174-.232-.44-.377-.729-.397-.285-.02-.573.085-.778.29L23.586 56H20V58zM2 63h14c.552 0 1-.447 1-1v-9c0-2.309-1.582-4.239-3.712-4.811C14.345 47.107 15 45.629 15 44c0-.116-.001-.233-.01-.301C14.829 40.504 12.198 38 9 38s-5.829 2.504-5.987 5.65C3.001 43.767 3 43.884 3 44c0 1.629.655 3.107 1.712 4.189C2.582 48.761 1 50.691 1 53v9C1 62.553 1.448 63 2 63zM9 40c1.408 0 2.64.737 3.354 1.861C11.341 41.307 10.193 41 9 41c-1.198 0-2.35.31-3.365.868C6.345 40.747 7.583 40 9 40zM9 43c1.53 0 2.955.702 3.894 1.885C12.489 46.665 10.901 48 9 48s-3.489-1.335-3.894-3.115C6.045 43.702 7.47 43 9 43zM3 53c0-1.654 1.346-3 3-3h6c1.654 0 3 1.346 3 3v8H3V53zM59.288 48.189C60.345 47.107 61 45.629 61 44c0-.116-.001-.233-.01-.301C60.829 40.504 58.198 38 55 38s-5.829 2.504-5.987 5.65C49.001 43.767 49 43.884 49 44c0 1.629.655 3.107 1.712 4.189C48.582 48.761 47 50.691 47 53v9c0 .553.448 1 1 1h14c.552 0 1-.447 1-1v-9C63 50.691 61.418 48.761 59.288 48.189zM55 40c1.408 0 2.64.737 3.354 1.861C57.341 41.307 56.193 41 55 41c-1.198 0-2.35.31-3.365.868C52.345 40.747 53.583 40 55 40zM55 43c1.53 0 2.955.702 3.894 1.885C58.489 46.665 56.901 48 55 48s-3.489-1.335-3.894-3.115C52.045 43.702 53.47 43 55 43zM61 61H49v-8c0-1.654 1.346-3 3-3h6c1.654 0 3 1.346 3 3V61zM32 6c-3.198 0-5.829 2.504-5.987 5.65C26.001 11.767 26 11.884 26 12c0 1.629.655 3.107 1.712 4.189C25.582 16.761 24 18.691 24 21v9c0 .553.448 1 1 1h14c.552 0 1-.447 1-1v-9c0-2.309-1.582-4.239-3.712-4.811C37.345 15.107 38 13.629 38 12c0-.116-.001-.233-.01-.301C37.829 8.504 35.198 6 32 6zM32 8c1.408 0 2.64.737 3.354 1.861C34.341 9.307 33.193 9 32 9c-1.198 0-2.35.31-3.365.868C29.345 8.747 30.583 8 32 8zM32 11c1.53 0 2.955.702 3.894 1.885C35.489 14.665 33.901 16 32 16s-3.489-1.335-3.894-3.115C29.045 11.702 30.47 11 32 11zM38 21v8H26v-8c0-1.654 1.346-3 3-3h6C36.654 18 38 19.346 38 21z"/></svg>