<svg xmlns="http://www.w3.org/2000/svg" viewBox="0 0 32 32"><path fill="#f2f2f2" d="M16,13.09a8,8,0,0,1,0,13.83,8,8,0,0,1,0-13.83Z"/><path fill="#6e6e6e" d="M24,12a8,8,0,1,0-8,8A8,8,0,0,0,24,12ZM16,2A10,10,0,1,1,6,12,10,10,0,0,1,16,2Z"/><path fill="#1c6ea5" d="M20,20a7.94,7.94,0,0,0-4-6.91,8,8,0,0,0,0,13.83A8,8,0,0,0,20,20Zm10,0A10,10,0,0,1,20,30a9.92,9.92,0,0,1-4-.84A9.92,9.92,0,0,1,12,30a10,10,0,0,1-1.11-19.94,1,1,0,0,1,.22,2A8,8,0,1,0,13.76,27.8,10,10,0,0,1,15.55,11l.07,0,.2,0,.18,0,.18,0,.2,0,.06,0a10,10,0,0,1,1.8,16.76A7.91,7.91,0,0,0,20,28a8,8,0,0,0,.89-15.95A1,1,0,0,1,20,10.94a1,1,0,0,1,1.1-.88A10,10,0,0,1,30,20Z"/></svg>